<svg xmlns="http://www.w3.org/2000/svg" width="1200" height="675" viewBox="0 0 1200 675"><rect width="1200" height="675" fill="#f3f1e9"/><circle cx="1030" cy="120" r="240" fill="#e2e9e1"/><path d="M0 465 H1200" stroke="#d5ddd7" stroke-width="2"/><rect x="740" y="160" width="230" height="120" rx="30" fill="#172938" stroke="none" stroke-width="5"/><rect x="760" y="230" width="190" height="26" rx="10" fill="#edc18f" stroke="none" stroke-width="5"/><circle cx="925" cy="190" r="7" fill="#26766e" stroke="none" stroke-width="6"/><path d="M740 200 L550 200" stroke="#657987" stroke-width="16" fill="none" stroke-linecap="round"/><rect x="180" y="115" width="180" height="250" rx="24" fill="#172938" stroke="none" stroke-width="5"/><circle cx="270" cy="200" r="35" fill="#db742c" stroke="none" stroke-width="6"/><rect x="225" y="272" width="90" height="12" rx="10" fill="white" stroke="none" stroke-width="5"/><path d="M405 240 L630 240" stroke="#db742c" stroke-width="9" fill="none" stroke-linecap="round"/><path d="M630 240 L612 224" stroke="#db742c" stroke-width="8" fill="none" stroke-linecap="round"/><path d="M630 240 L612 256" stroke="#db742c" stroke-width="8" fill="none" stroke-linecap="round"/><text x="750" y="355" font-family="Arial,sans-serif" font-size="22" font-weight="600" fill="#26766e">OPENER</text><text x="72" y="535" font-family="Arial,sans-serif" font-size="17" font-weight="700" letter-spacing="4" fill="#26766e">SMART GARAGE DOORS / FIELD GUIDE</text><text x="72" y="590" font-family="Arial,sans-serif" font-size="38" font-weight="600" fill="#172938">When the opener will not respond</text><text x="72" y="628" font-family="Arial,sans-serif" font-size="21" font-weight="600" fill="#657987">Controls, power and the door system.</text></svg>